<svg version="1.1" id="Layer_1" xmlns="http://www.w3.org/2000/svg" xmlns:xlink="http://www.w3.org/1999/xlink" x="0px" y="0px"
	 width="100%" viewBox="0 0 618 415" enable-background="new 0 0 618 415" xml:space="preserve">
<path fill="#000000" opacity="1.000000" stroke="none" 
	d="
M442.000000,416.000000 
	C294.702179,416.000000 147.904343,416.000000 1.053260,416.000000 
	C1.053260,277.735657 1.053260,139.471252 1.053260,1.103437 
	C206.881180,1.103437 412.762421,1.103437 618.821838,1.103437 
	C618.821838,139.333145 618.821838,277.666565 618.821838,416.000000 
	C560.137878,416.000000 501.318939,416.000000 442.000000,416.000000 
M534.124268,396.490387 
	C534.417175,396.679657 534.710083,396.868927 534.845215,397.003723 
	C534.845215,397.003723 534.790771,397.161438 535.087830,397.762207 
	C542.163574,407.114410 552.652954,408.568542 563.129272,409.066650 
	C566.538086,409.228790 570.085571,406.475067 573.742859,405.174652 
	C573.742859,405.174652 573.947510,405.125031 574.645386,404.973816 
	C575.625244,404.326080 576.605103,403.678375 578.199585,402.870850 
	C595.127747,391.234192 597.690247,368.654266 583.402710,353.930328 
	C579.495239,349.903534 577.829529,345.848328 577.899170,340.258698 
	C578.146057,320.436920 577.920227,300.609589 577.919922,280.784363 
	C577.919373,245.631912 578.005371,210.479309 577.901306,175.327225 
	C577.889160,171.231934 579.179321,168.018295 582.575745,166.165710 
	C590.573792,161.803101 598.708008,157.677597 606.897156,153.681564 
	C613.469910,150.474213 614.898132,141.443924 609.143677,136.670837 
	C606.758179,134.692169 603.816528,133.264618 600.942200,132.012451 
	C556.686462,112.732803 512.375488,93.579979 468.128510,74.280266 
	C431.196747,58.171333 394.389679,41.775238 357.401459,25.797846 
	C346.461182,21.072092 335.093384,17.336082 323.100677,12.991758 
	C311.574249,11.335868 300.116211,10.872250 289.016052,14.965447 
	C289.016052,14.965447 289.028778,14.868270 288.287537,14.911818 
	C286.881195,15.311499 285.474884,15.711180 283.362335,16.260347 
	C281.196625,17.119909 279.004242,17.918303 276.869110,18.848059 
	C234.954742,37.099766 193.052917,55.380272 151.136200,73.626602 
	C113.432213,90.039154 75.707390,106.403885 38.006432,122.823425 
	C30.984932,125.881432 24.027836,129.087784 17.050762,132.247177 
	C12.348876,134.376312 8.994133,137.518280 8.872204,143.127609 
	C8.754416,148.546402 11.860755,151.793701 16.306715,153.978394 
	C20.782902,156.177963 25.378885,158.135300 29.935421,160.169571 
	C60.448895,173.792160 90.958824,187.422729 121.483429,201.020340 
	C161.175034,218.701523 200.876465,236.360641 240.579285,254.016617 
	C256.857635,261.255646 273.059174,268.678040 289.466248,275.613464 
	C302.352386,281.060516 315.700287,282.210480 328.827240,276.497528 
	C354.018219,265.534210 379.066559,254.243301 404.176331,243.093323 
	C413.913788,238.769409 423.654419,234.452652 433.398621,230.143982 
	C457.758606,219.372589 482.114075,208.590912 506.486969,197.848862 
	C515.614685,193.825958 524.686035,189.644913 533.975891,186.031876 
	C539.226257,183.989929 541.676880,185.924500 542.266235,191.592636 
	C542.540833,194.233734 542.535400,196.911209 542.536499,199.572250 
	C542.542297,213.898315 542.527161,228.224426 542.487793,242.550430 
	C542.396729,275.702271 542.315430,308.854218 542.117188,342.005463 
	C542.105225,344.010468 541.550293,346.299042 540.475769,347.954376 
	C537.802063,352.073242 534.224548,355.645477 531.835327,359.900635 
	C526.639099,369.155060 524.900146,378.915985 529.795654,389.700745 
	C530.514587,390.839874 531.233521,391.978973 531.949707,393.013062 
	C531.949707,393.013062 531.844666,393.015961 532.020935,393.635132 
	C532.665283,394.466919 533.309692,395.298676 534.011169,396.047943 
	C534.011169,396.047943 533.928711,395.990692 534.124268,396.490387 
M132.024750,350.986969 
	C132.024750,350.986969 132.059311,350.927155 132.177536,351.635223 
	C133.320602,355.669250 135.993500,358.058197 140.002518,358.994446 
	C140.002518,358.994446 140.036392,358.943115 140.321106,359.540894 
	C141.587463,360.338013 142.853821,361.135101 144.723816,362.237885 
	C154.781754,368.603271 164.180374,375.923828 175.988815,379.388123 
	C193.052567,384.394196 209.626083,391.188446 226.829880,395.563904 
	C241.262115,399.234436 256.296936,400.535614 271.659912,403.016571 
	C279.092438,403.612457 286.524963,404.208344 294.646606,404.895660 
	C295.108765,404.874268 295.570953,404.852875 296.962097,404.923706 
	C304.956970,404.923462 312.951843,404.923248 321.635620,405.000854 
	C322.096191,404.972626 322.556793,404.944397 323.893555,404.971344 
	C327.584534,404.631409 331.275543,404.291473 335.852661,404.009308 
	C367.387024,401.914001 398.263184,396.554108 428.002594,385.505493 
	C445.823944,378.884613 463.426727,371.797943 478.793976,360.284943 
	C491.224365,350.972229 498.044037,338.525116 498.946716,321.993683 
	C498.922119,296.029205 498.897522,270.064728 498.991699,243.220032 
	C499.009521,242.387634 499.050446,241.554993 499.041565,240.722885 
	C498.957397,232.845566 495.090118,229.882309 487.436035,231.880737 
	C485.831757,232.299591 484.161224,232.699722 482.722382,233.479614 
	C471.991760,239.295975 460.412170,243.189026 449.325226,248.207260 
	C412.476227,264.886017 375.340271,280.932739 338.265472,297.109772 
	C318.721893,305.637329 299.120239,305.260162 279.673767,296.683990 
	C250.607544,283.865417 221.585159,270.947540 192.524338,258.116699 
	C178.709976,252.017410 164.849884,246.021683 150.408356,239.627121 
	C147.294586,238.336075 144.180801,237.045044 141.085434,235.818893 
	C141.085434,235.818893 141.148163,235.794098 140.637970,235.320068 
	C137.897446,234.141479 135.204391,232.832718 132.406113,231.812546 
	C127.246887,229.931625 122.620422,232.413422 121.420143,237.762146 
	C120.991058,239.674286 121.059441,241.718430 121.055702,243.702606 
	C121.004066,271.094025 120.979469,298.485504 120.694206,326.188416 
	C120.614250,326.503479 120.534286,326.818512 120.454330,327.133575 
	C120.569321,327.154938 120.684311,327.176300 120.799309,327.197662 
	C120.823982,326.733978 120.848663,326.270325 121.278114,326.279266 
	C121.541283,326.839935 121.804459,327.400604 122.059799,328.753448 
	C124.264870,334.602356 126.469933,340.451233 128.655014,347.032776 
	C129.797211,348.337677 130.939392,349.642609 132.024750,350.986969 
M500.999176,264.500000 
	C500.999176,256.079132 500.999176,247.658249 500.999176,239.237381 
	C500.750336,239.244858 500.501465,239.252319 500.252625,239.259796 
	C500.252625,266.464264 500.252625,293.668732 500.252625,320.873199 
	C500.502045,320.873596 500.751434,320.873993 501.000854,320.874359 
	C501.000854,302.416260 501.000854,283.958130 500.999176,264.500000 
z"/>
<path fill="#3E3F3F" opacity="1.000000" stroke="none" 
	d="
M529.582947,389.049011 
	C524.900146,378.915985 526.639099,369.155060 531.835327,359.900635 
	C534.224548,355.645477 537.802063,352.073242 540.475769,347.954376 
	C541.550293,346.299042 542.105225,344.010468 542.117188,342.005463 
	C542.315430,308.854218 542.396729,275.702271 542.487793,242.550430 
	C542.527161,228.224426 542.542297,213.898315 542.536499,199.572250 
	C542.535400,196.911209 542.540833,194.233734 542.266235,191.592636 
	C541.676880,185.924500 539.226257,183.989929 533.975891,186.031876 
	C524.686035,189.644913 515.614685,193.825958 506.486969,197.848862 
	C482.114075,208.590912 457.758606,219.372589 433.398621,230.143982 
	C423.654419,234.452652 413.913788,238.769409 404.176331,243.093323 
	C379.066559,254.243301 354.018219,265.534210 328.827240,276.497528 
	C315.700287,282.210480 302.352386,281.060516 289.466248,275.613464 
	C273.059174,268.678040 256.857635,261.255646 240.579285,254.016617 
	C200.876465,236.360641 161.175034,218.701523 121.483429,201.020340 
	C90.958824,187.422729 60.448895,173.792160 29.935421,160.169571 
	C25.378885,158.135300 20.782902,156.177963 16.306715,153.978394 
	C11.860755,151.793701 8.754416,148.546402 8.872204,143.127609 
	C8.994133,137.518280 12.348876,134.376312 17.050762,132.247177 
	C24.027836,129.087784 30.984932,125.881432 38.006432,122.823425 
	C75.707390,106.403885 113.432213,90.039154 151.136200,73.626602 
	C193.052917,55.380272 234.954742,37.099766 276.869110,18.848059 
	C279.004242,17.918303 281.196625,17.119909 284.006409,16.270512 
	C286.109924,15.809874 287.569336,15.339070 289.028778,14.868269 
	C289.028778,14.868270 289.016052,14.965447 289.413513,14.960610 
	C300.048920,14.589394 310.287628,14.241408 320.523804,13.830819 
	C321.663666,13.785098 322.789276,13.383226 323.921478,13.146525 
	C335.093384,17.336082 346.461182,21.072092 357.401459,25.797846 
	C394.389679,41.775238 431.196747,58.171333 468.128510,74.280266 
	C512.375488,93.579979 556.686462,112.732803 600.942200,132.012451 
	C603.816528,133.264618 606.758179,134.692169 609.143677,136.670837 
	C614.898132,141.443924 613.469910,150.474213 606.897156,153.681564 
	C598.708008,157.677597 590.573792,161.803101 582.575745,166.165710 
	C579.179321,168.018295 577.889160,171.231934 577.901306,175.327225 
	C578.005371,210.479309 577.919373,245.631912 577.919922,280.784363 
	C577.920227,300.609589 578.146057,320.436920 577.899170,340.258698 
	C577.829529,345.848328 579.495239,349.903534 583.402710,353.930328 
	C597.690247,368.654266 595.127747,391.234192 577.548462,403.055481 
	C575.914062,403.868408 574.930786,404.496704 573.947510,405.125000 
	C573.947510,405.125031 573.742859,405.174652 573.213623,405.142822 
	C570.080139,405.603668 567.468872,406.062592 564.872864,406.595581 
	C557.820251,408.043457 551.161133,406.171509 545.239441,402.878784 
	C542.967651,401.615570 542.349487,397.391907 540.944092,394.533844 
	C540.820190,394.281921 540.445190,394.153473 540.364380,394.095337 
	C538.442383,395.152649 536.616577,396.157043 534.790771,397.161438 
	C534.790771,397.161438 534.845215,397.003723 534.747681,396.850586 
	C534.409668,396.461853 534.169189,396.226257 533.928711,395.990692 
	C533.928711,395.990692 534.011169,396.047943 533.879456,395.784790 
	C533.113403,394.686401 532.479004,393.851196 531.844666,393.015961 
	C531.844666,393.015961 531.949707,393.013062 531.869324,392.728363 
	C531.053589,391.312103 530.318298,390.180542 529.582947,389.049011 
z"/>
<path fill="#3E3F3F" opacity="1.000000" stroke="none" 
	d="
M271.064972,402.885834 
	C256.296936,400.535614 241.262115,399.234436 226.829880,395.563904 
	C209.626083,391.188446 193.052567,384.394196 175.988815,379.388123 
	C164.180374,375.923828 154.781754,368.603271 144.228928,361.829773 
	C142.501495,360.595490 141.268936,359.769318 140.036377,358.943115 
	C140.036392,358.943115 140.002518,358.994446 139.850677,358.695038 
	C137.152344,355.906128 134.605820,353.416656 132.059311,350.927155 
	C132.059311,350.927155 132.024750,350.986969 131.951385,350.654846 
	C130.810349,348.981842 129.742676,347.640991 128.675003,346.300140 
	C126.469933,340.451233 124.264870,334.602356 122.188263,327.970917 
	C122.582985,323.883636 122.848976,320.578888 123.115608,317.274170 
	C123.348167,314.391815 124.455727,312.525299 127.807426,312.858246 
	C128.606781,312.937653 129.469238,312.381744 131.379303,311.777374 
	C129.574768,310.735687 128.593491,309.672302 127.827927,309.809814 
	C123.582359,310.572449 123.259506,308.337891 123.262589,304.936188 
	C123.280350,285.309692 123.103745,265.683014 123.016685,246.056320 
	C123.008583,244.230881 122.697197,242.190826 123.400444,240.648987 
	C123.928917,239.490341 126.418449,237.961166 127.077209,238.326050 
	C132.593231,241.381393 136.950089,239.312683 141.148163,235.794098 
	C141.148163,235.794098 141.085434,235.818893 141.215240,236.115372 
	C143.153259,241.431152 146.995651,240.938736 151.010513,239.979019 
	C164.849884,246.021683 178.709976,252.017410 192.524338,258.116699 
	C221.585159,270.947540 250.607544,283.865417 279.673767,296.683990 
	C299.120239,305.260162 318.721893,305.637329 338.265472,297.109772 
	C375.340271,280.932739 412.476227,264.886017 449.325226,248.207260 
	C460.412170,243.189026 471.991760,239.295975 482.722382,233.479614 
	C484.161224,232.699722 485.831757,232.299591 487.436035,231.880737 
	C495.090118,229.882309 498.957397,232.845566 499.041565,240.722885 
	C499.050446,241.554993 499.009521,242.387634 498.817627,244.046906 
	C498.437775,246.681152 498.056854,248.488113 498.052856,250.295929 
	C498.003784,272.375000 497.986420,294.454285 498.039764,316.533295 
	C498.044891,318.661774 498.578003,320.789001 498.866028,322.916809 
	C498.044037,338.525116 491.224365,350.972229 478.793976,360.284943 
	C463.426727,371.797943 445.823944,378.884613 428.002594,385.505493 
	C398.263184,396.554108 367.387024,401.914001 335.032776,403.846069 
	C330.481018,404.093903 326.749207,404.505035 323.017365,404.916168 
	C322.556793,404.944397 322.096191,404.972626 320.910828,404.835938 
	C314.130798,404.126892 308.083252,403.397003 302.015839,403.145233 
	C300.048309,403.063568 298.028839,404.233887 296.033112,404.831512 
	C295.570953,404.852875 295.108765,404.874268 294.017944,404.624573 
	C285.947845,403.864288 278.506409,403.375061 271.064972,402.885834 
z"/>
<path fill="#3F4040" opacity="1.000000" stroke="none" 
	d="
M140.893066,235.557083 
	C136.950089,239.312683 132.593231,241.381393 127.077209,238.326050 
	C126.418449,237.961166 123.928917,239.490341 123.400444,240.648987 
	C122.697197,242.190826 123.008583,244.230881 123.016685,246.056320 
	C123.103745,265.683014 123.280350,285.309692 123.262589,304.936188 
	C123.259506,308.337891 123.582359,310.572449 127.827927,309.809814 
	C128.593491,309.672302 129.574768,310.735687 131.379303,311.777374 
	C129.469238,312.381744 128.606781,312.937653 127.807426,312.858246 
	C124.455727,312.525299 123.348167,314.391815 123.115608,317.274170 
	C122.848976,320.578888 122.582985,323.883636 122.192177,327.574829 
	C121.804459,327.400604 121.541283,326.839935 121.092957,326.062134 
	C120.907791,325.845001 120.948250,325.876953 120.948257,325.876953 
	C120.979469,298.485504 121.004066,271.094025 121.055702,243.702606 
	C121.059441,241.718430 120.991058,239.674286 121.420143,237.762146 
	C122.620422,232.413422 127.246887,229.931625 132.406113,231.812546 
	C135.204391,232.832718 137.897446,234.141479 140.893066,235.557083 
M131.027908,235.019913 
	C131.027908,235.019913 130.995270,235.044586 131.027908,235.019913 
z"/>
<path fill="#444444" opacity="1.000000" stroke="none" 
	d="
M534.939331,397.461823 
	C536.616577,396.157043 538.442383,395.152649 540.364380,394.095337 
	C540.445190,394.153473 540.820190,394.281921 540.944092,394.533844 
	C542.349487,397.391907 542.967651,401.615570 545.239441,402.878784 
	C551.161133,406.171509 557.820251,408.043457 564.872864,406.595581 
	C567.468872,406.062592 570.080139,405.603668 573.127075,405.082977 
	C570.085571,406.475067 566.538086,409.228790 563.129272,409.066650 
	C552.652954,408.568542 542.163574,407.114410 534.939331,397.461823 
z"/>
<path fill="#444444" opacity="1.000000" stroke="none" 
	d="
M501.000000,265.000000 
	C501.000854,283.958130 501.000854,302.416260 501.000854,320.874359 
	C500.751434,320.873993 500.502045,320.873596 500.252625,320.873199 
	C500.252625,293.668732 500.252625,266.464264 500.252625,239.259796 
	C500.501465,239.252319 500.750336,239.244858 500.999176,239.237381 
	C500.999176,247.658249 500.999176,256.079132 501.000000,265.000000 
z"/>
<path fill="#4E4E4E" opacity="1.000000" stroke="none" 
	d="
M498.906372,322.455261 
	C498.578003,320.789001 498.044891,318.661774 498.039764,316.533295 
	C497.986420,294.454285 498.003784,272.375000 498.052856,250.295929 
	C498.056854,248.488113 498.437775,246.681152 498.758240,244.487030 
	C498.897522,270.064728 498.922119,296.029205 498.906372,322.455261 
z"/>
<path fill="#464747" opacity="1.000000" stroke="none" 
	d="
M323.511078,13.069141 
	C322.789276,13.383226 321.663666,13.785098 320.523804,13.830819 
	C310.287628,14.241408 300.048920,14.589394 289.364929,14.954239 
	C300.116211,10.872250 311.574249,11.335868 323.511078,13.069141 
z"/>
<path fill="#464747" opacity="1.000000" stroke="none" 
	d="
M271.362427,402.951202 
	C278.506409,403.375061 285.947845,403.864288 293.673401,404.578857 
	C286.524963,404.208344 279.092438,403.612457 271.362427,402.951202 
z"/>
<path fill="#464747" opacity="1.000000" stroke="none" 
	d="
M296.497620,404.877625 
	C298.028839,404.233887 300.048309,403.063568 302.015839,403.145233 
	C308.083252,403.397003 314.130798,404.126892 320.566406,404.797058 
	C312.951843,404.923248 304.956970,404.923462 296.497620,404.877625 
z"/>
<path fill="#3F4040" opacity="1.000000" stroke="none" 
	d="
M150.709442,239.803070 
	C146.995651,240.938736 143.153259,241.431152 141.206024,236.082916 
	C144.180801,237.045044 147.294586,238.336075 150.709442,239.803070 
z"/>
<path fill="#0C0C0C" opacity="1.000000" stroke="none" 
	d="
M132.118423,351.281189 
	C134.605820,353.416656 137.152344,355.906128 139.875214,358.676605 
	C135.993500,358.058197 133.320602,355.669250 132.118423,351.281189 
z"/>
<path fill="#464747" opacity="1.000000" stroke="none" 
	d="
M323.455444,404.943756 
	C326.749207,404.505035 330.481018,404.093903 334.589691,403.817139 
	C331.275543,404.291473 327.584534,404.631409 323.455444,404.943756 
z"/>
<path fill="#0C0C0C" opacity="1.000000" stroke="none" 
	d="
M128.665009,346.666443 
	C129.742676,347.640991 130.810349,348.981842 131.979797,350.635101 
	C130.939392,349.642609 129.797211,348.337677 128.665009,346.666443 
z"/>
<path fill="#0C0C0C" opacity="1.000000" stroke="none" 
	d="
M140.178741,359.242004 
	C141.268936,359.769318 142.501495,360.595490 143.927109,361.676941 
	C142.853821,361.135101 141.587463,360.338013 140.178741,359.242004 
z"/>
<path fill="#464747" opacity="1.000000" stroke="none" 
	d="
M288.658142,14.890042 
	C287.569336,15.339070 286.109924,15.809874 284.359497,16.195770 
	C285.474884,15.711180 286.881195,15.311499 288.658142,14.890042 
z"/>
<path fill="#444444" opacity="1.000000" stroke="none" 
	d="
M529.689331,389.374878 
	C530.318298,390.180542 531.053589,391.312103 531.870728,392.780884 
	C531.233521,391.978973 530.514587,390.839874 529.689331,389.374878 
z"/>
<path fill="#444444" opacity="1.000000" stroke="none" 
	d="
M531.932800,393.325562 
	C532.479004,393.851196 533.113403,394.686401 533.850891,395.826050 
	C533.309692,395.298676 532.665283,394.466919 531.932800,393.325562 
z"/>
<path fill="#444444" opacity="1.000000" stroke="none" 
	d="
M574.296448,405.049408 
	C574.930786,404.496704 575.914062,403.868408 577.241150,403.135376 
	C576.605103,403.678375 575.625244,404.326080 574.296448,405.049408 
z"/>
<path fill="#3F4040" opacity="1.000000" stroke="none" 
	d="
M120.890564,325.825806 
	C120.848663,326.270325 120.823982,326.733978 120.799309,327.197662 
	C120.684311,327.176300 120.569321,327.154938 120.454330,327.133575 
	C120.534286,326.818512 120.614250,326.503479 120.821228,326.032684 
	C120.948250,325.876953 120.907791,325.845001 120.890564,325.825806 
z"/>
<path fill="#444444" opacity="1.000000" stroke="none" 
	d="
M534.026489,396.240540 
	C534.169189,396.226257 534.409668,396.461853 534.826538,396.877808 
	C534.710083,396.868927 534.417175,396.679657 534.026489,396.240540 
z"/>
<path fill="#3E3F3F" opacity="1.000000" stroke="none" 
	d="
M131.011597,235.032257 
	C130.995270,235.044586 131.027908,235.019913 131.011597,235.032257 
z"/>
</svg>